HIERARCHY
ROOT Hips
{
  OFFSET 34.9442 102.479 -81.0097
  CHANNELS 6 Xposition Yposition Zposition Zrotation Xrotation Yrotation
  JOINT RightUpLeg
  {
    OFFSET -8.9458 -8.66707 0.101652
    CHANNELS 3 Zrotation Xrotation Yrotation
    JOINT RightLeg
    {
      OFFSET 0 -44.4227 1.3727
      CHANNELS 3 Zrotation Xrotation Yrotation
      JOINT RightFoot
      {
        OFFSET 0.253549 -42.0924 -1.46059
        CHANNELS 3 Zrotation Xrotation Yrotation
        JOINT RightToes
        {
          OFFSET 0.04 -4.41509 8.4991
          CHANNELS 3 Zrotation Xrotation Yrotation
          End Site
          {
            OFFSET -0.08 -0.137448 9.77979
          }
        }
      }
    }
  }
  JOINT Spine
  {
    OFFSET 0 11.8905 0
    CHANNELS 3 Zrotation Xrotation Yrotation
    JOINT Spine1
    {
      OFFSET 0 25.6574 0.127663
      CHANNELS 3 Zrotation Xrotation Yrotation
      JOINT HEad
      {
        OFFSET 0 8.73416 0.011341
        CHANNELS 3 Zrotation Xrotation Yrotation
        End Site
        {
          OFFSET -0.29 12.7742 2.51395
        }
      }
      JOINT LeftShoulder1
      {
        OFFSET 8.99 -0.362252 -0.22
        CHANNELS 3 Zrotation Xrotation Yrotation
        JOINT LeftArm
        {
          OFFSET 10.2827 -0.00338 0.322123
          CHANNELS 3 Zrotation Xrotation Yrotation
          JOINT LeftForeArm
          {
            OFFSET 32.7669 0.099144 -1.42434
            CHANNELS 3 Zrotation Xrotation Yrotation
            JOINT LeftHand
            {
              OFFSET 27.5643 0.085362 1.02216
              CHANNELS 3 Zrotation Xrotation Yrotation
              End Site
              {
                OFFSET 16.7443 -0.6 1.50291
              }
            }
          }
        }
      }
      JOINT RightShoulder
      {
        OFFSET -8.99 -0.362252 -0.22
        CHANNELS 3 Zrotation Xrotation Yrotation
        JOINT RightArm
        {
          OFFSET -10.2827 -0.00338 0.322123
          CHANNELS 3 Zrotation Xrotation Yrotation
          JOINT RightForeArm
          {
            OFFSET -32.8971 0.099144 -1.42434
            CHANNELS 3 Zrotation Xrotation Yrotation
            JOINT RightHand
            {
              OFFSET -27.4921 0.085362 1.02216
              CHANNELS 3 Zrotation Xrotation Yrotation
              End Site
              {
                OFFSET -16.6312 -0.6 1.50291
              }
            }
          }
        }
      }
    }
  }
  JOINT LeftUpLeg
  {
    OFFSET 8.9458 -8.66707 0.101652
    CHANNELS 3 Zrotation Xrotation Yrotation
    JOINT LeftLeg
    {
      OFFSET 0 -44.4227 1.3727
      CHANNELS 3 Zrotation Xrotation Yrotation
      JOINT LeftFoot
      {
        OFFSET -0.253549 -42.0924 -1.46059
        CHANNELS 3 Zrotation Xrotation Yrotation
        JOINT LeftToes
        {
          OFFSET -0.04 -4.41509 8.4991
          CHANNELS 3 Zrotation Xrotation Yrotation
          End Site
          {
            OFFSET 0.08 -0.047448 9.77979
          }
        }
      }
    }
  }
}
MOTION
Frames:	17
Frame Time:	0.0166667
38.5865 101.763 65.9616 2.89404 -3.63816 -2.14296 -0.330277 -19.1036 1.27792 2.11986 19.0406 0.135897 -2.23543 -1.32353 -0.10544 25.7635 28.7788 -13.4275 -4.87653 2.36564 0.188671 -2.48327 10.7548 0.321169 3.68223 -2.94444 8.92459 9.93923e-017 1.59028e-015 -0 -104.873 -49.4749 -33.5773 -7.51214 13.1039 -10.8044 0.368473 9.90896 -0.00117927 -2.45959 0.426674 3.27177 101.389 -54.2063 23.5889 -0.823586 12.1414 0.628802 -0.369625 9.91382 0.00119887 -1.83223 5.49567 3.10062 -7.30132 35.8781 12.7849 -0.282185 -14.7855 0.0289768 6.83779e-011 -1.45078e-010 3.60198e-012 
38.2607 101.959 67.7746 2.93799 -3.8704 -2.54617 -0.165544 -18.192 0.550071 1.96199 20.0499 1.47753 -2.57912 -2.39109 -0.123265 26.2906 27.0417 -13.1065 -4.96429 2.37296 0.288087 -2.44686 10.7762 0.311339 3.77629 -2.69349 9.1093 -1.44119e-015 0 3.97569e-016 -104.077 -50.424 -31.9414 -7.79378 13.1687 -11.2917 0.368473 9.90896 -0.00117927 -2.58594 0.426553 3.39198 102.135 -53.5284 24.4581 -0.792838 12.1436 0.691496 -0.369625 9.91382 0.00119887 -1.47366 4.67051 4.09613 -7.22069 38.9677 13.3439 -0.177463 -12.5642 0.0419864 6.83772e-011 -1.45081e-010 3.60516e-012 
37.9345 102.174 69.5241 2.92168 -4.19697 -2.97055 0.181537 -16.9776 -0.662441 1.40403 20.6367 3.42298 -2.97683 -3.41881 -0.14527 26.4162 24.9843 -12.5379 -4.99355 2.39365 0.390743 -2.41186 11.0079 0.310305 3.98915 -2.46616 9.29256 9.93923e-017 1.59028e-015 -3.97569e-016 -103.445 -51.366 -30.5522 -7.93422 13.2051 -11.6225 0.368473 9.90896 -0.00117927 -2.80477 0.421653 3.52952 103.082 -52.6405 25.4591 -0.728155 12.1485 0.808353 -0.369625 9.91382 0.00119887 -1.08488 3.56578 4.95978 -7.05704 42.3125 13.9582 -0.209841 -9.94378 0.0474125 6.83803e-011 -1.45087e-010 3.60516e-012 
37.5776 102.354 71.1535 2.78506 -4.57754 -3.38214 0.639363 -15.6152 -1.33089 0.937846 20.9492 4.68476 -3.43669 -4.62453 -0.18274 24.6952 24.1363 -11.5454 -4.77507 2.45404 0.471234 -2.47142 11.4986 0.347969 4.24632 -2.1916 9.48017 1.78906e-015 0 -0 -103.079 -52.2356 -29.6903 -7.87346 13.1958 -11.6599 0.368473 9.90896 -0.00117927 -3.06688 0.415337 3.70355 104.218 -51.4996 26.5171 -0.58174 12.1594 1.03665 -0.369625 9.91382 0.00119887 -0.682167 2.17116 5.33289 -6.55195 45.646 14.3305 -0.444767 -6.21376 0.0563736 6.83756e-011 -1.45081e-010 3.60198e-012 
37.2286 102.51 72.7014 2.579 -4.89 -3.68784 1.13738 -14.2597 -1.4999 0.701707 21.0381 5.21347 -3.8864 -5.71337 -0.223449 22.2486 23.3185 -10.2921 -4.38708 2.53867 0.507865 -2.5702 12.0266 0.404233 4.54557 -2.08446 9.62366 2.98177e-016 -1.59028e-015 -3.97569e-016 -102.859 -53.0196 -29.165 -7.69122 13.1566 -11.4773 0.368473 9.90896 -0.00117927 -3.28996 0.409687 3.8509 105.267 -50.2611 27.5358 -0.360236 12.176 1.33812 -0.369625 9.91382 0.00119887 -0.345796 0.487866 5.57729 -5.69436 49.0187 14.0241 -0.769219 -3.13195 0.0611637 6.83772e-011 -1.45081e-010 3.60198e-012 
36.9221 102.616 74.1807 2.31207 -4.97537 -3.74569 1.53879 -13.1734 -0.652285 1.11315 21.0512 4.20619 -4.2405 -6.39784 -0.258026 19.6762 21.5845 -8.81609 -3.76088 2.65067 0.448687 -2.69322 12.3879 0.476171 4.84316 -2.51486 9.66821 2.98177e-016 1.59028e-015 3.97569e-016 -102.718 -53.6478 -28.9442 -7.42273 13.0887 -11.0394 0.368473 9.90896 -0.00117927 -3.37145 0.407167 3.89826 105.959 -49.0549 28.3952 -0.0331378 12.2005 1.70478 -0.369625 9.91382 0.00119887 -0.142551 -1.55749 6.00282 -3.92737 52.6075 11.8495 -1.24013 -2.8139 0.0546543 6.83803e-011 -1.45081e-010 3.5988e-012 
36.639 102.729 75.6111 2.06899 -4.90568 -3.66613 1.83414 -12.1727 0.52717 1.73459 20.8196 2.66816 -4.54125 -6.87353 -0.288499 17.281 19.7549 -7.43711 -3.14658 2.76068 0.358992 -2.80903 12.5793 0.541304 5.19444 -2.94469 9.63927 2.98177e-016 -3.18055e-015 3.97569e-016 -102.565 -54.1949 -28.7836 -7.13689 13.0153 -10.536 0.368473 9.90896 -0.00117927 -3.32319 0.409999 3.89506 106.389 -47.9184 29.1781 0.335647 12.2286 2.10302 -0.369625 9.91382 0.00119887 -0.0360811 -3.74574 6.40782 -1.6313 55.691 8.92425 -1.40908 -3.47593 0.0453413 6.83795e-011 -1.45081e-010 3.60198e-012 
36.3612 102.926 77.0162 1.93874 -4.69555 -3.46164 2.03277 -11.0938 1.54129 2.24937 20.0806 1.30764 -4.81454 -7.19709 -0.312039 15.26 18.562 -6.43257 -2.78956 2.83865 0.285154 -2.88014 12.5039 0.574132 5.7391 -2.817 9.4957 2.20695e-032 1.59028e-015 -7.95139e-016 -102.192 -54.6724 -28.3369 -6.93466 12.9666 -10.163 0.368473 9.90896 -0.00117927 -3.04563 0.423925 3.8276 106.483 -46.9698 29.8979 0.706799 12.2582 2.52047 -0.369625 9.91382 0.00119887 -0.0524183 -5.83791 6.7698 0.283802 57.4909 6.53823 -0.496625 -3.84376 0.0400304 6.83795e-011 -1.45094e-010 3.60198e-012 
36.1193 103.131 78.3975 1.90312 -4.3569 -3.28571 2.11636 -10.1626 2.38769 2.63858 19.3036 0.240443 -5.02541 -7.49781 -0.334028 14.1431 17.4124 -5.78701 -2.63729 2.88978 0.232068 -2.90736 12.2387 0.580283 6.17935 -2.5585 9.3775 9.93923e-017 0 -0 -101.797 -55.1933 -27.804 -6.76211 12.9283 -9.86403 0.368473 9.90896 -0.00117927 -2.77028 0.44085 3.81204 106.483 -46.0863 30.6295 1.03768 12.2854 2.88523 -0.369625 9.91382 0.00119887 -0.160159 -7.97674 6.8474 1.47662 58.532 4.90497 0.446524 -4.50473 0.036972 6.83803e-011 -1.45075e-010 3.60039e-012 
35.947 103.288 79.7673 2.03457 -3.84476 -3.35552 2.03984 -9.67054 2.86556 2.8155 18.9741 -0.0878118 -5.11644 -7.96813 -0.359693 15.0545 15.7985 -5.73331 -2.80072 2.89601 0.231828 -2.89264 11.7248 0.5518 6.18666 -2.40223 9.45555 -1.09332e-015 -3.18055e-015 7.95139e-016 -101.523 -55.9674 -27.2392 -6.593 12.8961 -9.67287 0.368473 9.90896 -0.00117927 -2.73148 0.455654 4.0133 106.587 -45.1886 31.4427 1.26042 12.3047 3.07652 -0.369625 9.91382 0.00119887 -0.456444 -10.3289 6.29618 1.28651 59.146 4.71191 0.393002 -5.72532 0.0385364 6.83764e-011 -1.45094e-010 3.60118e-012 
35.8168 103.408 81.1172 2.1663 -3.34585 -3.49134 1.97203 -9.25895 3.08382 2.87163 18.8107 -0.0300904 -5.18259 -8.47519 -0.386978 16.4737 14.1767 -5.8524 -3.03494 2.89698 0.249228 -2.7988 11.2727 0.504785 5.98284 -2.37407 9.59558 1.98785e-016 0 3.97569e-016 -101.321 -56.7235 -26.7378 -6.44432 12.8688 -9.51539 0.368473 9.90896 -0.00117927 -2.82164 0.465115 4.27146 106.797 -44.2641 32.3341 1.41255 12.3196 3.2285 -0.369625 9.91382 0.00119887 -0.760502 -12.6012 5.37447 0.0828432 59.207 5.65464 0.0525483 -7.19377 0.0392318 6.83787e-011 -1.45091e-010 3.60198e-012 
35.7099 103.48 82.4487 2.11064 -3.08363 -3.549 2.09325 -8.57878 3.00052 2.81108 18.6534 0.30545 -5.3321 -8.92098 -0.415416 17.3836 12.873 -5.8297 -3.1037 2.93507 0.259928 -2.55619 11.255 0.450184 5.6677 -2.63158 9.6884 5.96354e-016 0 -3.97569e-016 -101.235 -57.1935 -26.4763 -6.32044 12.8425 -9.30385 0.368473 9.90896 -0.00117927 -3.00379 0.463159 4.4472 107.188 -43.2742 33.3405 1.50658 12.331 3.45892 -0.369625 9.91382 0.00119887 -0.803703 -14.4774 4.10943 -1.96422 58.6454 7.73153 -0.163788 -8.68337 0.0341411 6.83783e-011 -1.45081e-010 3.60118e-012 
35.6328 103.511 83.7447 1.98526 -2.90191 -3.63897 2.27249 -7.88915 2.85904 2.7361 18.6027 0.655025 -5.46707 -9.39347 -0.445331 17.5484 11.7487 -5.61496 -3.09172 2.9839 0.263411 -2.25917 11.428 0.39419 5.28692 -3.01142 9.83075 -4.96962e-016 0 -0 -101.212 -57.5767 -26.3262 -6.23184 12.8202 -9.11312 0.368473 9.90896 -0.00117927 -3.29959 0.453306 4.64373 107.713 -42.2181 34.4012 1.54882 12.3392 3.69641 -0.369625 9.91382 0.00119887 -0.774316 -16.1639 2.84795 -4.15817 57.4781 10.0773 -0.389203 -10.2055 0.0236369 6.83776e-011 -1.45084e-010 3.60277e-012 
35.5925 103.505 84.9768 1.85064 -2.72948 -3.86419 2.40455 -7.35434 2.94187 2.77712 18.7422 0.6457 -5.49839 -9.98445 -0.477676 16.0497 10.8669 -4.96543 -3.00263 3.0305 0.248686 -1.98183 11.7067 0.348162 4.91792 -3.46081 10.1429 -6.95746e-016 -1.59028e-015 3.97569e-016 -101.233 -58.0038 -26.2404 -6.18767 12.8014 -8.97772 0.368473 9.90896 -0.00117927 -3.77259 0.434556 4.9466 108.426 -41.0352 35.5028 1.53709 12.3445 3.90288 -0.369625 9.91382 0.00119887 -0.714537 -17.7758 2.02289 -5.82334 55.7592 11.8508 -0.570644 -11.7556 0.0103106 6.83783e-011 -1.45081e-010 3.60039e-012 
35.5687 103.468 86.1812 1.69693 -2.53519 -4.1032 2.5483 -6.91169 3.08152 2.8416 18.9681 0.50064 -5.50841 -10.5844 -0.510263 13.9588 9.94078 -4.15329 -2.84327 3.07706 0.222821 -1.71714 11.9877 0.307996 4.5689 -3.80478 10.4446 -2.98177e-016 -1.59028e-015 3.97569e-016 -101.207 -58.4119 -26.1202 -6.1968 12.7932 -8.93083 0.368473 9.90896 -0.00117927 -4.26005 0.414379 5.2694 109.116 -39.8759 36.5554 1.50945 12.3491 4.09622 -0.369625 9.91382 0.00119887 -0.615587 -19.2925 1.4609 -6.96521 53.4962 13.2219 -0.856359 -13.1543 -0.0176441 6.83783e-011 -1.45087e-010 3.60039e-012 
35.539 103.408 87.379 1.53074 -2.25011 -4.24673 2.74667 -6.55325 3.23097 2.87419 19.1604 0.238378 -5.52971 -11.0818 -0.537664 11.7758 8.613 -3.29728 -2.62346 3.12442 0.187244 -1.47727 12.1182 0.271248 4.24047 -3.71502 10.5293 -1.98785e-016 -1.59028e-015 -7.95139e-016 -100.996 -58.7611 -25.8079 -6.28824 12.807 -9.04841 0.368473 9.90896 -0.00117927 -4.59239 0.401396 5.54964 109.589 -38.8918 37.4831 1.49297 12.3543 4.26887 -0.369625 9.91382 0.00119887 -0.480972 -20.7682 1.13465 -7.3785 50.7126 14.0779 -1.57952 -14.2871 -0.0929247 6.83787e-011 -1.45081e-010 3.60357e-012 
35.516 103.313 88.5881 1.3609 -1.91652 -4.36151 2.95682 -6.27845 3.31353 2.8961 19.4499 0.0990764 -5.62141 -11.5743 -0.570239 10.2887 7.16745 -2.61822 -2.33789 3.16358 0.147886 -1.28049 12.1612 0.244618 4.00579 -3.60429 10.5923 -7.95139e-016 0 -1.59028e-015 -100.699 -59.1109 -25.4096 -6.41041 12.8292 -9.23667 0.368473 9.90896 -0.00117927 -4.8546 0.391123 5.80111 109.929 -38.0121 38.2653 1.51825 12.3637 4.45911 -0.369625 9.91382 0.00119887 -0.350513 -22.0939 1.03837 -7.3307 47.4112 14.7209 -2.13425 -14.9548 -0.150804 6.83787e-011 -1.45084e-010 3.60357e-012 
